<?xml version="1.0" encoding="UTF-8" standalone="no"?>
<!-- Created with Inkscape (http://www.inkscape.org/) -->

<svg
   width="14in"
   height="8.5in"
   viewBox="0 0 355.59999 215.90001"
   version="1.1"
   id="svg1"
   inkscape:version="1.3.2 (1:1.3.2+202311252150+091e20ef0f)"
   sodipodi:docname="iTokens_BW_Better.svg"
   inkscape:export-filename="twitter_background.png"
   inkscape:export-xdpi="400"
   inkscape:export-ydpi="400"
   xmlns:inkscape="http://www.inkscape.org/namespaces/inkscape"
   xmlns:sodipodi="http://sodipodi.sourceforge.net/DTD/sodipodi-0.dtd"
   xmlns="http://www.w3.org/2000/svg"
   xmlns:svg="http://www.w3.org/2000/svg">
  <sodipodi:namedview
     id="namedview1"
     pagecolor="#ffffff"
     bordercolor="#666666"
     borderopacity="1.0"
     inkscape:showpageshadow="2"
     inkscape:pageopacity="0.0"
     inkscape:pagecheckerboard="0"
     inkscape:deskcolor="#d1d1d1"
     inkscape:document-units="mm"
     inkscape:zoom="0.56822373"
     inkscape:cx="593.95619"
     inkscape:cy="343.17468"
     inkscape:window-width="1920"
     inkscape:window-height="1200"
     inkscape:window-x="1920"
     inkscape:window-y="0"
     inkscape:window-maximized="1"
     inkscape:current-layer="layer4"
     showgrid="false"
     showguides="false" />
  <defs
     id="defs1" />
  <g
     inkscape:groupmode="layer"
     id="layer1"
     inkscape:label="BG"
     sodipodi:insensitive="true"
     style="display:none">
    <rect
       style="fill:#000000;fill-opacity:1;stroke:#ffffff;stroke-width:0;stroke-linecap:round;stroke-linejoin:round;stroke-dasharray:none;paint-order:stroke markers fill"
       id="rect1"
       width="355.60001"
       height="215.89999"
       x="0"
       y="0" />
  </g>
  <g
     inkscape:groupmode="layer"
     id="layer4"
     inkscape:label="iTokens"
     style="display:inline"
     sodipodi:insensitive="true">
    <g
       id="g1"
       transform="translate(-0.8914795,7.4119195)">
      <path
         style="font-weight:900;font-size:75.5413px;line-height:1.25;font-family:Orbitron;-inkscape-font-specification:'Orbitron, Heavy';letter-spacing:0px;word-spacing:0px;display:inline;fill:#fefefe;fill-opacity:1;stroke-width:1.18063"
         d="m 96.294859,118.69129 v 0 -26.593281 h -13.29663 v -7.355578 h 33.948861 v 7.355578 h -13.29665 v 26.593281 z m 29.705161,0 q -1.83889,0 -3.39489,-0.94302 -1.55598,-0.94303 -2.499,-2.49902 -0.94303,-1.55599 -0.94303,-3.39488 V 98.180523 q 0,-1.8389 0.94303,-3.39488 0.94302,-1.556 2.499,-2.49902 1.556,-0.943026 3.39489,-0.943026 h 14.05105 q 1.88606,0 3.44204,0.943026 1.556,0.94302 2.45186,2.49902 0.94304,1.55598 0.94304,3.39488 v 13.673847 q 0,1.83889 -0.94304,3.39488 -0.89586,1.55599 -2.45186,2.49902 -1.55598,0.94302 -3.44204,0.94302 z m 0.37721,-7.21413 h 13.29664 q 0,0 0,0 0,0 0,0 V 98.557743 q 0,0 0,0 0,0 0,0 h -13.29664 q 0,0 0,0 0,0 0,0 z m 25.55592,7.21413 v 0 -36.306419 h 7.21413 v 19.001939 h 3.6778 l 9.28879,-10.043213 h 7.26127 v 2.451876 l -10.18465,11.221967 10.18465,11.22199 v 2.45186 h -7.26127 l -9.28879,-10.04321 h -3.6778 v 10.04321 z m 37.15514,0 q -1.8389,0 -3.39488,-0.94302 -1.556,-0.94303 -2.49902,-2.49902 -0.94302,-1.55599 -0.94302,-3.39488 V 98.180523 q 0,-1.8389 0.94302,-3.39488 0.94302,-1.556 2.49902,-2.49902 1.55598,-0.943026 3.39488,-0.943026 h 14.05106 q 1.88605,0 3.44204,0.943026 1.55599,0.94302 2.45186,2.49902 0.94302,1.55598 0.94302,3.39488 V 108.64808 H 189.4655 v 2.82908 q 0,0 0,0 0,0 0,0 h 20.51077 v 7.21413 z m 0.37721,-16.36147 h 13.29664 v -3.772077 q 0,0 0,0 0,0 0,0 H 189.4655 q 0,0 0,0 0,0 0,0 z m 25.55592,16.36147 v 0 -27.347693 h 20.88799 q 1.88604,0 3.44203,0.943026 1.556,0.94302 2.45186,2.49902 0.94304,1.55598 0.94304,3.39488 v 20.510767 h -7.21415 V 98.557743 q 0,0 0,0 0,0 0,0 h -13.29664 q 0,0 0,0 0,0 0,0 v 20.133547 z m 38.42817,0 q -1.83889,0 -3.39489,-0.94302 -1.55598,-0.94303 -2.49901,-2.49902 -0.94302,-1.55599 -0.94302,-3.39488 v -1.3674 h 7.21413 v 0.99019 q 0,0 0,0 0,0 0,0 h 13.29664 q 0,0 0,0 0,0 0,0 v -2.82908 q 0,0 0,0 0,0 0,0 h -13.67385 q -1.83889,0 -3.39489,-0.94302 -1.55598,-0.94302 -2.49901,-2.49901 -0.94302,-1.55599 -0.94302,-3.39489 v -3.630637 q 0,-1.8389 0.94302,-3.39488 0.94303,-1.556 2.49901,-2.49902 1.556,-0.943026 3.39489,-0.943026 h 14.05106 q 1.88605,0 3.44204,0.943026 1.55599,0.94302 2.49902,2.49902 0.94302,1.55598 0.94302,3.39488 v 1.36739 h -7.26129 v -0.99017 q 0,0 0,0 0,0 0,0 H 253.8268 q 0,0 0,0 0,0 0,0 v 2.829067 q 0,0 0,0 0,0 0,0 h 13.67385 q 1.88605,0 3.44204,0.94301 1.55599,0.94302 2.49902,2.49902 0.94302,1.55599 0.94302,3.39489 v 3.63064 q 0,1.83889 -0.94302,3.39488 -0.94303,1.55599 -2.49902,2.49902 -1.55599,0.94302 -3.44204,0.94302 z"
         id="text1"
         aria-label="Tokens" />
      <rect
         style="display:inline;fill:#000000;fill-opacity:1;stroke:#000000;stroke-width:0.876798;stroke-linecap:round;stroke-dasharray:none;paint-order:markers stroke fill"
         id="rect2-0"
         width="3.2879815"
         height="3.2879832"
         x="84.796654"
         y="86.83905" />
      <rect
         style="display:inline;fill:#000000;fill-opacity:1;stroke:#ffffff;stroke-width:1.91142;stroke-linecap:round;stroke-dasharray:none;stroke-opacity:1;paint-order:markers stroke fill"
         id="rect3"
         width="4.2345757"
         height="22.879255"
         x="84.388466"
         y="94.835503" />
    </g>
  </g>
</svg>
