<svg width="250" height="250" viewBox="0 0 250 250" fill="none" xmlns="http://www.w3.org/2000/svg">
<circle cx="125" cy="125" r="102.5" stroke="white" stroke-width="15"/>
<path d="M106.536 188.6C105.336 188.6 104.736 187.76 104.736 186.08C104.736 184.04 105.096 182.18 105.816 180.5C110.136 180.26 113.136 179.3 114.816 177.62C116.616 175.94 117.636 173.6 117.876 170.6C118.116 168.56 118.236 165.44 118.236 161.24C118.356 157.04 118.416 152.6 118.416 147.92C118.416 143.24 118.356 138.68 118.236 134.24C118.236 129.68 118.176 126.08 118.056 123.44C117.816 119.12 116.016 116.78 112.656 116.42L106.536 115.88C105.336 115.88 104.736 115.1 104.736 113.54C104.736 111.98 105.336 110.12 106.536 107.96C108.336 107.48 110.856 107 114.096 106.52C117.456 106.04 120.696 105.62 123.816 105.26C127.056 104.9 129.396 104.72 130.836 104.72C134.796 104.72 136.596 107.12 136.236 111.92C135.996 115.4 135.816 119.54 135.696 124.34C135.576 129.02 135.456 134 135.336 139.28C135.336 144.44 135.336 149.48 135.336 154.4C135.336 158 135.336 161.48 135.336 164.84C135.456 168.2 135.576 171.38 135.696 174.38C135.816 175.94 136.176 177.08 136.776 177.8C137.376 178.4 138.036 178.76 138.756 178.88C139.836 179 141.216 179.12 142.896 179.24C144.696 179.36 146.376 179.42 147.936 179.42C147.936 182.66 147.696 185.12 147.216 186.8C146.856 188 146.016 188.6 144.696 188.6H106.536ZM125.616 88.7C121.896 88.7 118.836 87.56 116.436 85.28C114.036 82.88 112.836 80 112.836 76.64C112.836 73.04 114.036 70.1 116.436 67.82C118.836 65.54 121.896 64.4 125.616 64.4C129.336 64.4 132.336 65.54 134.616 67.82C136.896 70.1 138.036 73.04 138.036 76.64C138.036 80 136.896 82.88 134.616 85.28C132.336 87.56 129.336 88.7 125.616 88.7Z" fill="white"/>
</svg>
