<svg width="700" height="250" viewBox="0 0 700 250" fill="none" xmlns="http://www.w3.org/2000/svg">
<path d="M43.1668 188.6C41.9668 188.6 41.3668 187.76 41.3668 186.08C41.3668 184.04 41.7268 182.18 42.4468 180.5C46.7668 180.26 49.7668 179.3 51.4468 177.62C53.2468 175.94 54.2668 173.6 54.5068 170.6C54.7468 168.56 54.8668 165.44 54.8668 161.24C54.9868 157.04 55.0468 152.6 55.0468 147.92C55.0468 143.24 54.9868 138.68 54.8668 134.24C54.8668 129.68 54.8068 126.08 54.6868 123.44C54.4468 119.12 52.6468 116.78 49.2868 116.42L43.1668 115.88C41.9668 115.88 41.3668 115.1 41.3668 113.54C41.3668 111.98 41.9668 110.12 43.1668 107.96C44.9668 107.48 47.4868 107 50.7268 106.52C54.0868 106.04 57.3268 105.62 60.4468 105.26C63.6868 104.9 66.0268 104.72 67.4668 104.72C71.4268 104.72 73.2268 107.12 72.8668 111.92C72.6268 115.4 72.4468 119.54 72.3268 124.34C72.2068 129.02 72.0868 134 71.9668 139.28C71.9668 144.44 71.9668 149.48 71.9668 154.4C71.9668 158 71.9668 161.48 71.9668 164.84C72.0868 168.2 72.2068 171.38 72.3268 174.38C72.4468 175.94 72.8068 177.08 73.4068 177.8C74.0068 178.4 74.6668 178.76 75.3868 178.88C76.4668 179 77.8468 179.12 79.5268 179.24C81.3268 179.36 83.0068 179.42 84.5668 179.42C84.5668 182.66 84.3268 185.12 83.8468 186.8C83.4868 188 82.6468 188.6 81.3268 188.6H43.1668ZM62.2468 88.7C58.5268 88.7 55.4668 87.56 53.0668 85.28C50.6668 82.88 49.4668 80 49.4668 76.64C49.4668 73.04 50.6668 70.1 53.0668 67.82C55.4668 65.54 58.5268 64.4 62.2468 64.4C65.9668 64.4 68.9668 65.54 71.2468 67.82C73.5268 70.1 74.6668 73.04 74.6668 76.64C74.6668 80 73.5268 82.88 71.2468 85.28C68.9668 87.56 65.9668 88.7 62.2468 88.7ZM122.575 188.6C121.375 188.6 120.775 188 120.775 186.8C120.775 186.32 120.895 185.36 121.135 183.92C121.495 182.48 121.915 181.34 122.395 180.5C127.675 180.26 131.275 179.06 133.195 176.9C135.115 174.62 136.075 171.02 136.075 166.1V73.4H108.895C106.015 73.52 104.095 74 103.135 74.84C102.295 75.68 101.575 77.54 100.975 80.42L98.9949 89.24C98.6349 90.56 97.7349 91.22 96.2949 91.22C95.6949 91.22 94.6749 91.1 93.2349 90.86C91.7949 90.62 90.7149 90.32 89.9949 89.96L91.7949 66.2C91.9149 64.88 92.2149 63.98 92.6949 63.5C93.1749 62.9 94.0749 62.6 95.3949 62.6H194.395C195.715 62.6 196.615 62.9 197.095 63.5C197.575 63.98 197.875 64.88 197.995 66.2L199.795 89.96C199.075 90.32 197.995 90.62 196.555 90.86C195.115 91.1 194.095 91.22 193.495 91.22C192.055 91.22 191.155 90.56 190.795 89.24L188.815 80.42C188.215 77.54 187.435 75.68 186.475 74.84C185.635 74 183.775 73.52 180.895 73.4H153.535V166.1C153.535 171.38 153.775 174.8 154.255 176.36C154.735 177.92 155.875 178.82 157.675 179.06C158.875 179.18 160.435 179.3 162.355 179.42C164.395 179.42 166.015 179.42 167.215 179.42C167.215 182.66 166.975 185.12 166.495 186.8C166.135 188 165.475 188.6 164.515 188.6H122.575ZM244.322 191.3C236.162 191.3 228.962 189.56 222.722 186.08C216.602 182.6 211.802 177.68 208.322 171.32C204.962 164.84 203.282 157.34 203.282 148.82C203.282 139.58 205.142 131.48 208.862 124.52C212.702 117.56 218.042 112.1 224.882 108.14C231.722 104.18 239.582 102.2 248.462 102.2C256.742 102.2 263.942 103.94 270.062 107.42C276.302 110.9 281.102 115.82 284.462 122.18C287.942 128.42 289.682 135.8 289.682 144.32C289.802 153.44 287.942 161.54 284.102 168.62C280.262 175.7 274.922 181.28 268.082 185.36C261.242 189.32 253.322 191.3 244.322 191.3ZM247.742 180.32C255.302 180.32 261.182 177.5 265.382 171.86C269.702 166.22 271.862 158.48 271.862 148.64C271.862 137.36 269.282 128.66 264.122 122.54C259.082 116.3 252.722 113.18 245.042 113.18C237.722 113.18 231.902 116.06 227.582 121.82C223.262 127.46 221.102 135.32 221.102 145.4C221.102 156.32 223.562 164.9 228.482 171.14C233.402 177.26 239.822 180.32 247.742 180.32ZM377.667 191.3C374.427 191.3 371.427 190.52 368.667 188.96C366.027 187.4 363.267 184.82 360.387 181.22L336.267 151.7L329.427 158.18V172.4C329.427 174.68 329.727 176.3 330.327 177.26C331.047 178.22 332.247 178.82 333.927 179.06C335.847 179.3 338.187 179.42 340.947 179.42C340.947 182.66 340.707 185.12 340.227 186.8C339.867 188 339.207 188.6 338.247 188.6H301.347C300.147 188.6 299.547 188 299.547 186.8C299.547 186.32 299.607 185.36 299.727 183.92C299.847 182.36 300.147 181.22 300.627 180.5C304.467 180.26 307.167 179.3 308.727 177.62C310.407 175.94 311.367 173.6 311.607 170.6C311.847 168.32 312.027 164.3 312.147 158.54C312.267 152.78 312.387 146.18 312.507 138.74C312.747 131.18 312.867 123.5 312.867 115.7C312.987 107.9 313.047 100.82 313.047 94.46C313.047 89.9 312.987 85.94 312.867 82.58C312.867 79.1 312.807 76.64 312.687 75.2C312.567 73.16 312.087 71.54 311.247 70.34C310.527 69.14 309.207 68.48 307.287 68.36L301.347 68C300.147 68 299.547 67.22 299.547 65.66C299.547 63.98 300.147 62.06 301.347 59.9C303.147 59.42 305.607 59 308.727 58.64C311.967 58.28 315.087 57.98 318.087 57.74C321.207 57.38 323.487 57.2 324.927 57.2C327.327 57.2 328.947 57.8 329.787 59C330.747 60.2 331.107 62.3 330.867 65.3C330.747 67.94 330.567 72.14 330.327 77.9C330.207 83.54 330.087 90.08 329.967 97.52C329.847 104.96 329.727 112.76 329.607 120.92C329.607 128.96 329.547 136.58 329.427 143.78L354.267 120.92C356.427 118.76 357.507 117.08 357.507 115.88C357.507 114.44 355.587 113.72 351.747 113.72C351.747 112.76 351.807 111.62 351.927 110.3C352.167 108.86 352.467 107.72 352.827 106.88C353.427 105.56 354.567 104.9 356.247 104.9H385.947C387.147 104.9 387.747 105.62 387.747 107.06C387.747 107.9 387.627 108.98 387.387 110.3C387.147 111.62 386.847 112.76 386.487 113.72C383.727 113.84 381.327 114.2 379.287 114.8C377.367 115.4 375.207 116.6 372.807 118.4C370.527 120.2 367.347 122.96 363.267 126.68L348.507 140.36C355.107 149.24 360.567 156.32 364.887 161.6C369.327 166.76 372.987 170.72 375.867 173.48C378.867 176.12 381.507 177.92 383.787 178.88C386.187 179.84 388.707 180.44 391.347 180.68C391.467 182.24 391.407 183.62 391.167 184.82C390.927 186.02 390.627 187.28 390.267 188.6C385.467 190.4 381.267 191.3 377.667 191.3ZM416.935 148.1C417.415 157.34 420.055 164.78 424.855 170.42C429.655 175.94 436.555 178.7 445.555 178.7C450.115 178.7 454.615 177.8 459.055 176C463.495 174.2 467.215 171.74 470.215 168.62C472.735 171.38 473.995 174.14 473.995 176.9C473.875 178.7 472.615 180.44 470.215 182.12C465.775 185.36 460.795 187.7 455.275 189.14C449.755 190.58 444.535 191.3 439.615 191.3C432.295 191.3 425.515 189.74 419.275 186.62C413.035 183.38 407.995 178.64 404.155 172.4C400.435 166.16 398.575 158.36 398.575 149C398.575 139.76 400.255 131.66 403.615 124.7C407.095 117.62 411.955 112.1 418.195 108.14C424.555 104.18 432.055 102.2 440.695 102.2C447.775 102.2 453.835 103.64 458.875 106.52C464.035 109.4 467.995 113.42 470.755 118.58C473.635 123.62 475.075 129.38 475.075 135.86C475.075 139.22 474.355 141.74 472.915 143.42C471.595 144.98 469.255 145.88 465.895 146.12L416.935 148.1ZM439.255 112.64C433.375 112.64 428.515 114.92 424.675 119.48C420.835 123.92 418.435 130.04 417.475 137.84L457.615 135.5C457.975 128.18 456.475 122.54 453.115 118.58C449.875 114.62 445.255 112.64 439.255 112.64ZM489.475 188.6C488.275 188.6 487.675 188 487.675 186.8C487.675 185.96 487.735 184.88 487.855 183.56C488.095 182.24 488.455 181.22 488.935 180.5C492.775 180.26 495.475 179.3 497.035 177.62C498.715 175.94 499.675 173.6 499.915 170.6C500.155 168.56 500.275 165.44 500.275 161.24C500.395 157.04 500.455 152.6 500.455 147.92C500.455 143.24 500.395 138.56 500.275 133.88C500.275 129.08 500.215 125.36 500.095 122.72C499.855 118.4 498.055 116.06 494.695 115.7L488.575 115.16C487.375 115.16 486.775 114.38 486.775 112.82C486.775 111.14 487.375 109.22 488.575 107.06C490.615 106.58 493.135 106.16 496.135 105.8C499.135 105.32 502.075 104.9 504.955 104.54C507.835 104.18 509.995 104 511.435 104C513.835 104 515.455 104.6 516.295 105.8C517.255 107 517.735 109.1 517.735 112.1C517.735 113.18 517.735 114.32 517.735 115.52C521.695 111.44 526.255 108.2 531.415 105.8C536.575 103.4 541.735 102.2 546.895 102.2C554.335 102.2 560.395 104.3 565.075 108.5C569.875 112.7 572.275 119.42 572.275 128.66V150.44C572.275 156.2 572.275 161.12 572.275 165.2C572.395 169.16 572.575 172.16 572.815 174.2C573.175 176.84 574.255 178.4 576.055 178.88C578.215 179.36 581.155 179.6 584.875 179.6C584.875 182.72 584.635 185.12 584.155 186.8C583.795 188 583.135 188.6 582.175 188.6H544.375C543.175 188.6 542.575 188 542.575 186.8C542.575 186.32 542.635 185.48 542.755 184.28C542.875 182.96 543.175 181.7 543.655 180.5C547.495 180.26 550.195 179.3 551.755 177.62C553.315 175.94 554.275 173.6 554.635 170.6C555.235 165.56 555.535 158.84 555.535 150.44C555.535 148.04 555.475 145.7 555.355 143.42C555.355 141.14 555.295 138.98 555.175 136.94C554.815 129.86 553.435 124.64 551.035 121.28C548.755 117.92 544.855 116.24 539.335 116.24C535.495 116.24 531.655 117.02 527.815 118.58C523.975 120.14 520.555 122.42 517.555 125.42C517.555 129.98 517.495 134.78 517.375 139.82C517.375 144.86 517.375 149.72 517.375 154.4C517.375 158 517.375 161.48 517.375 164.84C517.495 168.2 517.615 171.38 517.735 174.38C517.855 175.94 518.215 177.08 518.815 177.8C519.415 178.4 520.075 178.76 520.795 178.88C522.955 179.24 525.715 179.42 529.075 179.42C529.075 180.62 529.015 182 528.895 183.56C528.775 185.12 528.595 186.2 528.355 186.8C527.995 188 527.155 188.6 525.835 188.6H489.475ZM622.869 191.3C618.669 191.3 614.469 190.82 610.269 189.86C606.069 188.78 602.229 187.1 598.749 184.82C596.589 183.26 594.609 181.46 592.809 179.42C591.129 177.26 590.289 175.28 590.289 173.48C590.289 172.28 591.129 170.9 592.809 169.34C594.609 167.66 596.649 166.1 598.929 164.66C601.209 163.22 603.129 162.26 604.689 161.78C605.529 165.98 607.149 169.46 609.549 172.22C612.069 174.86 615.009 176.84 618.369 178.16C621.729 179.48 625.089 180.14 628.449 180.14C631.689 180.14 634.329 179.36 636.369 177.8C638.529 176.24 639.669 173.78 639.789 170.42C639.909 165.5 638.049 161.78 634.209 159.26C630.489 156.62 626.229 154.58 621.429 153.14C613.629 150.74 607.089 147.62 601.809 143.78C596.649 139.82 594.069 134.3 594.069 127.22C594.069 118.94 597.249 112.7 603.609 108.5C610.089 104.3 618.249 102.2 628.089 102.2C634.809 102.2 640.869 103.52 646.269 106.16C651.669 108.68 655.029 112.46 656.349 117.5C656.349 119.06 655.509 120.62 653.829 122.18C652.149 123.62 650.109 124.82 647.709 125.78C645.309 126.62 643.029 126.98 640.869 126.86C640.629 121.7 638.829 117.98 635.469 115.7C632.229 113.42 628.569 112.28 624.489 112.28C621.489 112.28 618.669 113.12 616.029 114.8C613.509 116.36 612.249 118.82 612.249 122.18C612.249 125.06 613.149 127.52 614.949 129.56C616.869 131.48 619.209 133.1 621.969 134.42C624.849 135.74 627.729 136.88 630.609 137.84C634.929 139.16 639.189 140.78 643.389 142.7C647.589 144.62 651.069 147.32 653.829 150.8C656.589 154.28 657.909 159.02 657.789 165.02C657.789 171.02 656.049 176 652.569 179.96C649.209 183.8 644.829 186.68 639.429 188.6C634.149 190.4 628.629 191.3 622.869 191.3Z" fill="white"/>
</svg>
