<svg width="724" height="138" viewBox="0 0 724 138" fill="none" xmlns="http://www.w3.org/2000/svg">
<path d="M50.5797 137.611V37.1005H0.324768V9.29986H128.635V37.1005H78.3803V137.611H50.5797ZM162.851 137.611C158.218 137.611 153.941 136.422 150.02 134.046C146.1 131.67 142.951 128.522 140.575 124.601C138.199 120.681 137.011 116.404 137.011 111.77V60.0895C137.011 55.4561 138.199 51.179 140.575 47.2585C142.951 43.3378 146.1 40.1895 150.02 37.8133C153.941 35.4372 158.218 34.2492 162.851 34.2492H215.958C220.71 34.2492 225.046 35.4372 228.967 37.8133C232.887 40.1895 235.976 43.3378 238.234 47.2585C240.61 51.179 241.798 55.4561 241.798 60.0895V111.77C241.798 116.404 240.61 120.681 238.234 124.601C235.976 128.522 232.887 131.67 228.967 134.046C225.046 136.422 220.71 137.611 215.958 137.611H162.851ZM164.277 110.345H214.532V61.5152H164.277V110.345ZM260.866 137.611V0.389404H288.132V72.2078H302.033L337.14 34.2492H364.584V43.5161L326.091 85.9298L364.584 128.344V137.611H337.14L302.033 99.6519H288.132V137.611H260.866ZM401.295 137.611C396.662 137.611 392.385 136.422 388.464 134.046C384.543 131.67 381.395 128.522 379.019 124.601C376.643 120.681 375.455 116.404 375.455 111.77V60.0895C375.455 55.4561 376.643 51.179 379.019 47.2585C381.395 43.3378 384.543 40.1895 388.464 37.8133C392.385 35.4372 396.662 34.2492 401.295 34.2492H454.401C459.154 34.2492 463.49 35.4372 467.411 37.8133C471.331 40.1895 474.42 43.3378 476.678 47.2585C479.054 51.179 480.242 55.4561 480.242 60.0895V99.6519H402.721V110.345H480.242V137.611H401.295ZM402.721 75.7719H452.976V61.5152H402.721V75.7719ZM499.31 137.611V34.2492H578.257C583.009 34.2492 587.345 35.4372 591.266 37.8133C595.187 40.1895 598.276 43.3378 600.533 47.2585C602.909 51.179 604.097 55.4561 604.097 60.0895V137.611H576.831V61.5152H526.576V137.611H499.31ZM644.55 137.611C639.917 137.611 635.64 136.422 631.719 134.046C627.799 131.67 624.65 128.522 622.274 124.601C619.898 120.681 618.71 116.404 618.71 111.77V106.602H645.976V110.345H696.231V99.6519H644.55C639.917 99.6519 635.64 98.4639 631.719 96.0878C627.799 93.7117 624.65 90.5633 622.274 86.6427C619.898 82.7221 618.71 78.445 618.71 73.8116V60.0895C618.71 55.4561 619.898 51.179 622.274 47.2585C624.65 43.3378 627.799 40.1895 631.719 37.8133C635.64 35.4372 639.917 34.2492 644.55 34.2492H697.657C702.409 34.2492 706.745 35.4372 710.666 37.8133C714.587 40.1895 717.735 43.3378 720.111 47.2585C722.487 51.179 723.675 55.4561 723.675 60.0895V65.2576H696.231V61.5152H645.976V72.2078H697.657C702.409 72.2078 706.745 73.3958 710.666 75.7719C714.587 78.148 717.735 81.2964 720.111 85.217C722.487 89.1376 723.675 93.4146 723.675 98.0481V111.77C723.675 116.404 722.487 120.681 720.111 124.601C717.735 128.522 714.587 131.67 710.666 134.046C706.745 136.422 702.409 137.611 697.657 137.611H644.55Z" fill="#FEFEFE"/>
<path d="M19.549 17.2241H7.12195V29.6511H19.549V17.2241Z" fill="black" stroke="black" stroke-width="3.31388" stroke-linecap="round"/>
<path d="M21.5839 47.4469H5.57919V133.92H21.5839V47.4469Z" fill="black" stroke="white" stroke-width="7.22426" stroke-linecap="round"/>
</svg>
