<svg width="394" height="308" viewBox="0 0 394 308" fill="none" xmlns="http://www.w3.org/2000/svg">
<path d="M393.437 73.3131C344.564 75.4034 285.848 71.0665 192.861 101.283C159.756 112.041 123.616 129.973 99.2974 146.187C73.5312 163.366 66.314 176.279 62.9484 189.88C45.4968 260.405 108.355 303.936 108.355 303.936C68.1242 152.205 85.8893 162.287 393.437 73.3131Z" fill="white" stroke="black" stroke-width="3.22411"/>
<path d="M384.406 46.1943C333.75 48.3609 272.892 43.8657 176.512 75.1847C142.199 86.3349 104.74 104.922 79.5341 121.727C52.8277 139.533 45.3471 152.918 41.8587 167.015C23.7704 240.113 95.9263 294.119 95.9263 294.119C45.3145 149.633 65.6367 138.415 384.406 46.1943Z" fill="white" stroke="black" stroke-width="3.34175"/>
<path d="M364.04 22.8014C313.384 24.9679 252.526 20.4728 156.146 51.7917C121.833 62.9419 84.3737 81.5287 59.1682 98.3343C32.4618 116.141 24.9812 129.525 21.4928 143.622C3.40447 216.72 81.1689 281.365 81.1689 281.365C30.5571 136.878 45.2708 115.022 364.04 22.8014Z" fill="white" stroke="black" stroke-width="3.34175"/>
<path d="M347.57 2.02856C296.913 4.19511 236.055 -0.300077 139.676 31.0189C105.363 42.1691 67.9034 60.7559 42.6978 77.5615C15.9915 95.3677 8.51091 108.752 5.02248 122.849C-13.0658 195.947 63.9824 263.911 63.9824 263.911C13.3706 119.425 28.8005 94.2488 347.57 2.02856Z" fill="white" stroke="black" stroke-width="3.34175"/>
</svg>
